<svg width="135mm" height="114mm" version="1.1" viewBox="0 0 135 114" xmlns="http://www.w3.org/2000/svg" xmlns:xlink="http://www.w3.org/1999/xlink"><rect width="135" height="114" fill="#fff"/><path id="a" d="m54.6 16.1v20.3m8.8-15.2-17.5 10.13m17.5 0-17.5-10.1m14.57-5.1-11.5 20.2m0-20.2 11.6 20.2m5.8-10.1h-23.3m5.81 10.1-5.8-10.1 5.8-10.1h11.6l5.8 10.1-5.8 10.1z" fill="none" stroke="#444" stroke-width=".1"/><use transform="translate(-17.5 10.1)" xlink:href="#a"/><use transform="translate(17.5 10)" xlink:href="#a"/><use transform="translate(34.9 20.2)" xlink:href="#a"/><use transform="translate(-17.5 30.3)" xlink:href="#a"/><use transform="translate(0 20.2)" xlink:href="#a"/><use transform="translate(0 40.5)" xlink:href="#a"/><use transform="translate(34.9 40.4)" xlink:href="#a"/><use transform="translate(17.4 30.3)" xlink:href="#a"/><path id="c" d="m72 16.3 0-10-5.8-.1l-2.9-5.1-8.8 5.1-8.7-5-3.12 4.9 5.8 10.1 5.9 0 0 10.2 8.8 5.1 2.8-5.1-2.9-5.1z" fill="#4cf" fill-opacity=".5" opacity=".5" stroke="#f00" stroke-width=".6"/><use transform="rotate(240 72 16.3)" xlink:href="#c"/><use transform="rotate(120 72.1 36.4)" xlink:href="#c"/><use transform="translate(52.6 50.3)" xlink:href="#c"/><use transform="rotate(60 37.1 56.6)" xlink:href="#c"/><use transform="translate(35 60.6)" xlink:href="#c"/><use transform="rotate(240 89.5 46.5)" xlink:href="#c"/><use transform="rotate(180 63.3 41.5)" xlink:href="#c"/><use transform="rotate(-60 89.5 26.3)" xlink:href="#c"/><use transform="translate(-17.4 30.3)" xlink:href="#c"/><use transform="rotate(120 37 36.5)" xlink:href="#c"/><use transform="rotate(120 31.3 46.5)" xlink:href="#c"/><use transform="rotate(240 60.3 56.6)" xlink:href="#c"/><use transform="translate(-34.8 40.3)" xlink:href="#c"/><use transform="rotate(60 19.6-14)" xlink:href="#c"/><use transform="rotate(120 42.9 6.1)" xlink:href="#c"/><use transform="translate(69.96,20.1)" xlink:href="#b"/><path id="b" d="m37.05 16.2 8.7-5 3 5 5.8-.1v10.2l8.7 5-2.7 5.14h-11.64l-3-5.1-8.8 5.1-8.8-5.1 3-5 5.8-.1z" fill="#fd5" opacity=".5" stroke="#00f" stroke-width=".6"/><use transform="rotate(120 31.3 66.6)" xlink:href="#b"/></svg>